<svg xmlns="http://www.w3.org/2000/svg" width="512" height="512" viewBox="0 0 512 512"><style>.a{fill: #70DF6C ;;}</style><g xmlns="http://www.w3.org/2000/svg"><path d="M256 0C114.8 0 0 114.8 0 256s114.8 256 256 256 256-114.9 256-256S397.2 0 256 0zM256 472.3c-119.3 0-216.3-97-216.3-216.3S136.7 39.7 256 39.7c119.3 0 216.3 97 216.3 216.3S375.3 472.3 256 472.3z" data-original="#000000" class="a"/></g><g xmlns="http://www.w3.org/2000/svg"><path d="M373.5 167c-8.1-7.3-20.6-6.8-28 1.3L224.5 301.5l-58.4-59.4c-7.7-7.8-20.2-7.9-28-0.2 -7.8 7.7-7.9 20.2-0.2 28l73.2 74.4c3.7 3.8 8.8 5.9 14.1 5.9 0.1 0 0.3 0 0.4 0 5.5-0.1 10.6-2.5 14.3-6.5l135.1-148.7C382.2 186.9 381.6 174.3 373.5 167z" data-original="#000000" class="a"/></g></svg>