<svg xmlns="http://www.w3.org/2000/svg" width="512" height="512" viewBox="0 0 512 512"><style>.a{fill:#FA524A ;}</style><g xmlns="http://www.w3.org/2000/svg"><path d="M256 0C114.5 0 0 114.5 0 256c0 141.5 114.5 256 256 256 141.5 0 256-114.5 256-256C512 114.5 397.5 0 256 0zM256 472c-119.4 0-216-96.6-216-216 0-119.4 96.6-216 216-216 119.4 0 216 96.6 216 216C472 375.4 375.4 472 256 472z" data-original="#000000" class="a"/></g><g xmlns="http://www.w3.org/2000/svg"><path d="M343.6 315.3L284.3 256l59.3-59.3c7.8-7.8 7.8-20.5 0-28.3 -7.8-7.8-20.5-7.8-28.3 0L256 227.7l-59.3-59.3c-7.8-7.8-20.5-7.8-28.3 0 -7.8 7.8-7.8 20.5 0 28.3L227.7 256l-59.3 59.3c-7.8 7.8-7.8 20.5 0 28.3 7.8 7.8 20.5 7.8 28.3 0L256 284.3l59.3 59.3c7.8 7.8 20.5 7.8 28.3 0C351.4 335.8 351.4 323.1 343.6 315.3z" data-original="#000000" class="a"/></g></svg>